# xmcd
#
# Track frame offsets:
#	150
#	18755
#	32205
#	45182
#	63032
#	77115
#	98535
#	108445
#	124952
#	137012
#	146350
#	164857
#	183420
#	199447
#	200947
#
# Disc length: 2683 seconds
#
# Revision: 0
# Processed by: cddbd v1.5.1PL0 Copyright (c) Steve Scherf et al.
# Submitted via: audiograbber 1.83.01
#
DISCID=d20a790f
DTITLE=Azul Azul - El sapo
DYEAR=2001
DGENRE=
TTITLE0=Loco
TTITLE1=Celulitis
TTITLE2=Dominao
TTITLE3=La puntita
TTITLE4=Mentirosa
TTITLE5=Mujeres
TTITLE6=Sapo
TTITLE7=Negra
TTITLE8=Lágrimas negras
TTITLE9=La bomba
TTITLE10=Loca
TTITLE11=El canto de las aves
TTITLE12=I believe in you
TTITLE13=Loco unplugged
TTITLE14=Sapo unplugged
EXTD=
EXTT0=
EXTT1=
EXTT2=
EXTT3=
EXTT4=
EXTT5=
EXTT6=
EXTT7=
EXTT8=
EXTT9=
EXTT10=
EXTT11=
EXTT12=
EXTT13=
EXTT14=
PLAYORDER=
